#!OML:ASF H:\Dans Jumps\Project 1\Capture day 1\Session 1\subject.ASF
:FULLY-SPECIFIED
:DEGREES
262
root 0.555571 16.4473 -14.8797 8.49129 -3.46366 -2.01077
lowerback 7.83126 -0.0608088 0.104605
upperback 6.52528 -0.106253 1.81623
thorax 2.36624 -0.0938882 1.822
lowerneck -14.42 1.36835 -1.62586
upperneck 24.4358 2.51969 -0.752401
head 10.1607 0.912547 0.332678
rclavicle -1.28216e-014 2.18663e-015
rhumerus -33.4111 -16.2401 -75.0246
rradius 26.2036
rwrist 29.0625
rhand -17.4035 -26.2963
rfingers 7.12502
rthumb 8.84594 -56.0909
lclavicle -1.28216e-014 2.18663e-015
lhumerus -30.9436 -2.72768 88.3525
lradius 19.8392
lwrist 10.7193
lhand -25.6197 -2.83256
lfingers 7.12502
lthumb 0.913068 27.1452
rfemur -34.6103 -0.227291 20.9222
rtibia 50.2991
rfoot -23.4486 -4.87564
rtoes 4.80959
lfemur -33.9941 10.3868 -19.6784
ltibia 50.0618
lfoot -21.4347 9.84027
ltoes -3.90717
263
root 0.555752 16.4376 -14.8787 8.5619 -3.47721 -2.00143
lowerback 7.89395 -0.0602223 0.0873021
upperback 6.53598 -0.105961 1.81834
thorax 2.34294 -0.094414 1.83406
lowerneck -14.4292 1.37901 -1.63805
upperneck 24.3352 2.53625 -0.754109
head 10.1259 0.920237 0.335769
rclavicle 1.26228e-014 -1.49089e-014
rhumerus -33.4692 -16.2506 -74.9908
rradius 26.2117
rwrist 29.0602
rhand -17.3555 -26.2966
rfingers 7.12502
rthumb 8.89229 -56.0892
lclavicle 1.26228e-014 -1.49089e-014
lhumerus -30.9991 -2.72984 88.3786
lradius 19.8181
lwrist 10.7737
lhand -25.6798 -2.96034
lfingers 7.12502
lthumb 0.855001 27.0177
rfemur -34.7851 -0.17079 20.9095
rtibia 50.4898
rfoot -23.5683 -4.99658
rtoes 4.7214
lfemur -34.1617 10.368 -19.7033
ltibia 50.2414
lfoot -21.5207 9.95329
ltoes -4.04089
264
root 0.555912 16.428 -14.8769 8.63108 -3.48733 -1.9886
lowerback 7.96081 -0.0610627 0.0665189
upperback 6.54621 -0.107708 1.82053
thorax 2.31695 -0.0960678 1.84828
lowerneck -14.4428 1.39103 -1.64687
upperneck 24.2361 2.55532 -0.760865
head 10.0928 0.928763 0.336882
rclavicle 9.0447e-015 9.34288e-015
rhumerus -33.5249 -16.2782 -74.9453
rradius 26.2321
rwrist 28.9878
rhand -17.24 -26.2854
rfingers 7.12502
rthumb 9.00372 -56.0732
lclavicle 9.0447e-015 9.34288e-015
lhumerus -31.0585 -2.72309 88.4023
lradius 19.8017
lwrist 10.8241
lhand -25.7235 -3.06785
lfingers 7.12502
lthumb 0.812749 26.9103
rfemur -34.9542 -0.116198 20.8933
rtibia 50.6791
rfoot -23.6979 -5.12952
rtoes 4.6169
lfemur -34.3224 10.3403 -19.7298
ltibia 50.4173
lfoot -21.6133 10.0837
ltoes -4.20144
265
root 0.556118 16.4184 -14.8744 8.69853 -3.49554 -1.97603
lowerback 8.033 -0.0617233 0.0493242
upperback 6.55451 -0.108928 1.82067
thorax 2.28597 -0.0972485 1.85835
lowerneck -14.4619 1.40196 -1.64586
upperneck 24.141 2.57238 -0.774571
head 10.0624 0.936384 0.333713
rclavicle 1.39149e-014 4.17448e-015
rhumerus -33.5891 -16.3157 -74.8935
rradius 26.2649
rwrist 28.8626
rhand -17.1004 -26.2558
rfingers 7.12502
rthumb 9.13849 -56.0378
lclavicle 1.39149e-014 4.17448e-015
lhumerus -31.126 -2.71846 88.4222
lradius 19.7901
lwrist 10.8747
lhand -25.7129 -3.09156
lfingers 7.12502
lthumb 0.823004 26.8866
rfemur -35.1162 -0.0638158 20.8769
rtibia 50.8673
rfoot -23.8355 -5.28031
rtoes 4.49069
lfemur -34.4761 10.3057 -19.7544
ltibia 50.5911
lfoot -21.7138 10.2347
ltoes -4.39441
266
root 0.55639 16.4089 -14.871 8.7663 -3.49972 -1.96477
lowerback 8.10887 -0.0636503 0.0350394
upperback 6.55951 -0.111585 1.82103
thorax 2.24958 -0.0990017 1.86709
lowerneck -14.4798 1.41142 -1.63882
upperneck 24.0474 2.58783 -0.79606
head 10.0326 0.942911 0.326596
rclavicle -6.4605e-015 -1.19271e-015
rhumerus -33.6615 -16.3522 -74.8391
rradius 26.2892
rwrist 28.767
rhand -17.0075 -26.2118
rfingers 7.12502
rthumb 9.22808 -55.9899
lclavicle -6.4605e-015 -1.19271e-015
lhumerus -31.2022 -2.70837 88.4395
lradius 19.7823
lwrist 10.9272
lhand -25.6842 -3.09641
lfingers 7.12502
lthumb 0.850742 26.8816
rfemur -35.2715 -0.0133664 20.8607
rtibia 51.0547
rfoot -23.9808 -5.45072
rtoes 4.37343
lfemur -34.6254 10.2622 -19.7759
ltibia 50.7637
lfoot -21.8187 10.4076
ltoes -4.62127
267
root 0.556751 16.3995 -14.867 8.83648 -3.49799 -1.95568
lowerback 8.18477 -0.0682447 0.0240971
upperback 6.56342 -0.117584 1.8223
thorax 2.21216 -0.10231 1.87513
lowerneck -14.4998 1.42047 -1.62627
upperneck 23.9534 2.60288 -0.823597
head 10.0032 0.949046 0.316409
rclavicle 6.16232e-015 1.78906e-014
rhumerus -33.7373 -16.3751 -74.7916
rradius 26.2986
rwrist 28.7396
rhand -17.0064 -26.166
rfingers 7.12502
rthumb 9.22913 -55.9441
lclavicle 6.16232e-015 1.78906e-014
lhumerus -31.2835 -2.6921 88.4535
lradius 19.7807
lwrist 10.9802
lhand -25.6546 -3.09747
lfingers 7.12502
lthumb 0.879334 26.8805
rfemur -35.4224 0.032741 20.8462
rtibia 51.2416
rfoot -24.1314 -5.64016
rtoes 4.28226
lfemur -34.7736 10.2077 -19.7938
ltibia 50.9361
lfoot -21.9279 10.6062
ltoes -4.87478
268
root 0.557191 16.3901 -14.8622 8.91366 -3.48954 -1.95097
lowerback 8.2577 -0.0751566 0.0188242
upperback 6.56503 -0.126334 1.82543
thorax 2.17406 -0.10681 1.88207
lowerneck -14.5198 1.42782 -1.61971
upperneck 23.8557 2.6156 -0.845916
head 9.97244 0.954245 0.308753
rclavicle 1.39149e-015 1.78906e-015
rhumerus -33.8161 -16.3805 -74.7527
rradius 26.3014
rwrist 28.7568
rhand -17.0677 -26.1309
rfingers 7.12502
rthumb 9.17003 -55.9115
lclavicle 1.39149e-015 1.78906e-015
lhumerus -31.368 -2.67345 88.4654
lradius 19.7845
lwrist 11.0367
lhand -25.6426 -3.11845
lfingers 7.12502
lthumb 0.890903 26.8594
rfemur -35.5751 0.0734603 20.8361
rtibia 51.4287
rfoot -24.2845 -5.84488
rtoes 4.2504
lfemur -34.9267 10.1441 -19.807
ltibia 51.1094
lfoot -22.046 10.8263
ltoes -5.1724
269
root 0.557693 16.3809 -14.8568 9.0002 -3.4744 -1.95086
lowerback 8.32765 -0.0856906 0.0178246
upperback 6.56277 -0.139615 1.83213
thorax 2.13374 -0.113467 1.8906
lowerneck -14.5427 1.43648 -1.61635
upperneck 23.7577 2.631 -0.868243
head 9.94212 0.960374 0.302005
rclavicle -2.68359e-015 2.62396e-014
rhumerus -33.8941 -16.3743 -74.7164
rradius 26.3044
rwrist 28.7791
rhand -17.1308 -26.0946
rfingers 7.12502
rthumb 9.1091 -55.8779
lclavicle -2.68359e-015 2.62396e-014
lhumerus -31.4527 -2.64854 88.4768
lradius 19.788
lwrist 11.097
lhand -25.6513 -3.14317
lfingers 7.12502
lthumb 0.882553 26.8348
rfemur -35.7316 0.107276 20.8307
rtibia 51.6162
rfoot -24.4427 -6.05612
rtoes 4.30624
lfemur -35.0873 10.0741 -19.816
ltibia 51.2842
lfoot -22.1812 11.0686
ltoes -5.53016
